<svg width="73" height="72" viewBox="0 0 73 72" fill="none" xmlns="http://www.w3.org/2000/svg">
<g clip-path="url(#clip0_44_3)">
<path fill-rule="evenodd" clip-rule="evenodd" d="M70.1584 34.522C71.8762 34.6652 73.1419 36.1888 72.9999 37.9208C72.8578 39.6527 71.3466 40.9289 69.6418 40.7727C67.9369 40.6294 66.6582 39.1188 66.8003 37.3869C66.9424 35.6679 68.4535 34.3787 70.1584 34.522ZM68.2339 23.2317C70.1842 23.401 71.6308 25.1329 71.4629 27.0863C71.295 29.0526 69.5772 30.4981 67.6398 30.3418C65.6895 30.1725 64.2559 28.4536 64.4109 26.4872C64.5788 24.5209 66.2966 23.0624 68.2339 23.2317ZM52.1667 0.0260445C55.3827 0.299512 57.7592 3.15138 57.488 6.3809C57.2168 9.62344 54.4011 12.0065 51.1851 11.733C47.982 11.4596 45.5926 8.62073 45.8638 5.39121C46.135 2.16169 48.9636 -0.247423 52.1667 0.0260445ZM55.5506 25.5887C59.3608 25.9143 62.2023 29.3001 61.8794 33.1416C61.5565 36.9962 58.2113 39.822 54.3882 39.4965C50.5781 39.1709 47.7624 35.8112 48.0853 31.9566C48.4082 28.1281 51.7534 25.2501 55.5506 25.5757V25.5887ZM62.0989 40.0043C64.8242 40.2387 66.8261 42.6348 66.6066 45.3695C66.3741 48.1042 63.9976 50.1356 61.2723 49.9012C58.56 49.6668 56.5581 47.2708 56.7906 44.5361C57.0101 41.8144 59.3866 39.7699 62.0989 40.0043ZM50.6168 63.5355C52.5025 63.6918 53.8974 65.3717 53.7424 67.2599C53.5874 69.1612 51.9213 70.5676 50.0485 70.4113C48.1628 70.255 46.7679 68.5882 46.9229 66.6869C47.0779 64.7857 48.7311 63.3793 50.6168 63.5355ZM41.7308 25.1199C43.4486 25.2632 44.7143 26.7868 44.5722 28.5187C44.4301 30.2507 42.919 31.5269 41.2012 31.3836C39.4963 31.2404 38.2177 29.7298 38.3727 27.9978C38.5147 26.2789 40.0259 24.9897 41.7308 25.1329V25.1199ZM52.0375 41.9577C54.3107 42.153 55.9898 44.1715 55.796 46.4504C55.6023 48.7292 53.6133 50.4352 51.3401 50.2528C49.0798 50.0575 47.4008 48.0391 47.5816 45.7602C47.7753 43.4683 49.7644 41.7754 52.0246 41.9577H52.0375ZM51.0172 52.662C53.2129 52.8573 54.8403 54.7846 54.6595 56.9984C54.4786 59.1991 52.5542 60.853 50.3585 60.6706C48.1757 60.4753 46.5483 58.535 46.7292 56.3212C46.91 54.1074 48.8344 52.4797 51.0301 52.662H51.0172ZM34.33 31.4748C36.3578 31.6441 37.8689 33.4542 37.701 35.4986C37.5331 37.5431 35.7378 39.0537 33.7101 38.8844C31.6823 38.7151 30.1711 36.9181 30.339 34.8606C30.5069 32.8161 32.2893 31.2925 34.33 31.4617V31.4748ZM63.6618 53.3652C65.7929 53.5475 67.3815 55.4357 67.2007 57.5974C67.0199 59.7461 65.1342 61.3478 63.016 61.1655C60.8849 60.9832 59.3091 59.095 59.49 56.9333C59.6708 54.7846 61.5436 53.1829 63.6747 53.3652H63.6618ZM64.7596 64.5122C66.8003 64.6815 68.3243 66.4786 68.1435 68.5491C67.9756 70.6066 66.1803 72.1432 64.1396 71.974C62.0989 71.8047 60.5749 69.9816 60.7557 67.924C60.9236 65.8535 62.7189 64.3429 64.7725 64.5122H64.7596ZM60.2778 12.4232C63.0418 12.6576 65.0825 15.1058 64.85 17.8926C64.6175 20.6663 62.1894 22.7368 59.4383 22.5024C56.6872 22.268 54.6336 19.8199 54.8661 17.0331C55.0986 14.2594 57.5268 12.1888 60.2778 12.4232ZM48.137 15.9262C50.4877 16.1215 52.2313 18.2181 52.0375 20.5882C51.8438 22.9582 49.7644 24.7292 47.4137 24.5339C45.063 24.3386 43.3065 22.242 43.5002 19.8589C43.694 17.4889 45.7734 15.7179 48.1241 15.9262H48.137ZM7.78808 48.4167C9.40255 49.8361 9.58337 52.2843 8.17555 53.9121C6.78065 55.5269 4.33956 55.7092 2.72509 54.3028C1.11062 52.8964 0.942714 50.4352 2.33762 48.8074C3.73252 47.1796 6.17361 47.0103 7.77516 48.4167H7.78808ZM7.85266 57.6755C9.26048 58.8996 9.41547 61.0483 8.18847 62.4807C6.96147 63.9002 4.83037 64.0564 3.42254 62.8323C2.01472 61.5952 1.85974 59.4466 3.08673 58.0271C4.31373 56.6077 6.44484 56.4514 7.85266 57.6885V57.6755ZM4.71412 65.2935C5.90237 66.3353 6.03153 68.1584 4.99827 69.3565C3.96501 70.5545 2.1568 70.6848 0.968546 69.656C-0.219706 68.6142 -0.348864 66.7911 0.684399 65.5931C1.71766 64.382 3.52587 64.2648 4.71412 65.3066V65.2935ZM7.24562 21.07C10.1258 21.3044 12.2699 23.8698 12.0245 26.7868C11.7791 29.6907 9.24756 31.8524 6.36734 31.605C3.48712 31.3576 1.35602 28.8052 1.60142 25.8882C1.84682 22.9843 4.3654 20.8226 7.25853 21.07H7.24562ZM14.4785 46.0076C16.6096 46.1899 18.1853 48.0651 18.0045 50.2138C17.8236 52.3494 15.9509 53.9512 13.8197 53.7689C11.7016 53.5996 10.1129 51.6983 10.2937 49.5627C10.4746 47.414 12.3473 45.8383 14.4655 46.0076H14.4785ZM16.0154 28.9094C18.3274 29.1047 20.0452 31.1622 19.8514 33.4932C19.6577 35.8242 17.617 37.5562 15.318 37.3478C13.0061 37.1525 11.2883 35.108 11.482 32.777C11.6757 30.446 13.7164 28.7141 16.0283 28.9094H16.0154ZM17.5653 55.7743C19.4123 55.9305 20.7943 57.5844 20.6393 59.4596C20.4843 61.3348 18.844 62.7282 16.997 62.5719C15.1372 62.4156 13.7681 60.7618 13.9231 58.8866C14.0781 57.0114 15.7184 55.618 17.5653 55.7743ZM18.8052 64.8638C20.3681 64.994 21.5434 66.3874 21.4142 67.9761C21.2851 69.5648 19.8902 70.7368 18.3274 70.6066C16.7645 70.4764 15.5892 69.07 15.7184 67.4813C15.8475 65.8926 17.2295 64.7206 18.8052 64.8508V64.8638ZM7.34894 34.1964C10.6554 34.4829 13.1094 37.4259 12.8381 40.7466C12.5669 44.0933 9.64795 46.5545 6.34151 46.2811C3.03507 45.9946 0.581073 43.0776 0.852304 39.7309C1.12354 36.3972 4.0425 33.9099 7.34894 34.1964ZM24.9661 35.1991C26.7097 35.3424 28.0013 36.879 27.8463 38.637C27.7042 40.382 26.1672 41.6972 24.4236 41.541C22.6929 41.3977 21.3884 39.8481 21.5434 38.0901C21.6855 36.3321 23.2224 35.0429 24.9532 35.1861L24.9661 35.1991ZM10.1258 8.16495C13.174 8.42539 15.4342 11.147 15.1888 14.2203C14.9305 17.3066 12.244 19.5724 9.1959 19.312C6.13486 19.0515 3.8746 16.3559 4.13291 13.2697C4.39123 10.1964 7.07771 7.9045 10.1258 8.16495Z" fill="#D67C1C"/>
</g>
<defs>
<clipPath id="clip0_44_3">
<rect width="73" height="72" fill="white"/>
</clipPath>
</defs>
</svg>
