<svg width="342" height="342" viewBox="0 0 342 342" fill="none" xmlns="http://www.w3.org/2000/svg">
<circle cx="171" cy="171" r="171" fill="#F95F05"/>
<path d="M234.43 241.384C233.107 239.628 231.83 237.394 230.622 234.635C229.414 231.876 227.977 228.068 226.313 223.144L216.076 192.295C214.32 186.709 211.994 181.67 209.076 177.179C206.158 172.687 202.008 169.108 196.582 166.44C194.279 165.3 191.566 164.411 188.533 163.772C194.119 159.03 198.862 153.011 202.715 145.715L232.925 88.3956L230.804 85.6368C226.883 85.2948 222.733 85.044 218.31 84.816C213.887 84.6108 210.079 84.4968 206.819 84.4968C200.982 84.4968 196.696 85.614 193.96 87.8712C191.224 90.1284 188.624 93.5712 186.208 98.2452L162.61 143.07C160.854 146.49 159.326 148.747 157.981 149.864C156.659 150.982 154.402 151.552 151.232 151.552C149.18 151.597 147.06 151.62 144.985 151.666V85.8648C141.656 85.2948 138.145 84.8844 134.429 84.6792C130.735 84.474 127.543 84.36 124.876 84.36C122.459 84.36 119.335 84.474 115.505 84.6792C111.674 84.8844 108.14 85.2948 104.88 85.8648V256.477C108.118 257.047 111.674 257.458 115.505 257.663C119.335 257.868 122.459 257.982 124.876 257.982C127.543 257.982 130.712 257.868 134.429 257.663C138.122 257.458 141.656 257.047 144.985 256.477V185.227C149.135 184.954 152.783 184.794 155.838 184.794C161.743 184.794 166.486 186.458 170.065 189.787C173.645 193.116 176.677 198.748 179.185 206.636L188.556 235.866C190.973 243.527 193.8 249.227 197.038 252.966C200.275 256.705 205.519 258.575 212.77 258.575C218.105 258.575 223.189 257.526 228.068 255.451C232.948 253.376 236.664 250.412 239.24 246.582C237.325 244.826 235.706 243.094 234.361 241.338L234.43 241.384Z" fill="white"/>
</svg>
