<svg width="86" height="84" viewBox="0 0 86 84" fill="none" xmlns="http://www.w3.org/2000/svg">
<path d="M39.4347 24.5878C46.8673 24.5878 52.9126 30.4925 52.9126 37.7593C52.9126 45.0261 46.8673 50.9238 39.4347 50.9238C32.002 50.9238 25.9495 45.0191 25.9495 37.7593C25.9495 30.4996 31.9948 24.5878 39.4347 24.5878ZM64.1406 60.1284L53.387 49.2037C56.1545 45.995 57.664 41.9579 57.664 37.7523C57.664 27.9299 49.4766 19.9329 39.4275 19.9329C29.3783 19.9329 21.1909 27.9299 21.1909 37.7523C21.1909 47.5748 29.3711 55.5648 39.4275 55.5648C43.2013 55.5648 46.8026 54.4484 49.8791 52.3421L60.7118 63.3441C61.1647 63.8005 61.7757 64.0532 62.4298 64.0532C63.048 64.0532 63.6302 63.8215 64.0759 63.4073C65.0176 62.5156 65.0463 61.0412 64.1406 60.1214" fill="#F95F05"/>
<path d="M64.1406 60.1284L53.387 49.2037C56.1545 45.995 57.664 41.9579 57.664 37.7523C57.664 27.9299 49.4766 19.9329 39.4275 19.9329C29.3783 19.9329 21.1909 27.9299 21.1909 37.7523C21.1909 47.5748 29.3711 55.5648 39.4275 55.5648C43.2013 55.5648 46.8026 54.4484 49.8791 52.3421L60.7118 63.3441C61.1647 63.8005 61.7757 64.0532 62.4298 64.0532C63.048 64.0532 63.6302 63.8215 64.0759 63.4073C65.0176 62.5156 65.0463 61.0412 64.1406 60.1214M39.4346 24.5878C46.8673 24.5878 52.9126 30.4925 52.9126 37.7593C52.9126 45.0261 46.8673 50.9238 39.4346 50.9238C32.002 50.9238 25.9495 45.0191 25.9495 37.7593C25.9495 30.4996 31.9948 24.5878 39.4346 24.5878V24.5878Z" stroke="#F95F05" stroke-miterlimit="10"/>
</svg>
