<svg width="150" height="150" viewBox="0 0 150 150" fill="none" xmlns="http://www.w3.org/2000/svg">
<circle cx="75" cy="75" r="75" fill="#014C83"/>
<path d="M85.47 37.77C84.05 37.52 82.35 37.32 80.38 37.19C78.41 37.06 76.73 37 75.34 37C73.88 37 72.17 37.05 70.22 37.16C68.27 37.27 66.6 37.43 65.21 37.65L41 111.1L41.66 112.03C42.65 112.4 43.97 112.69 45.63 112.91C47.29 113.13 48.78 113.24 50.09 113.24C51.4 113.24 52.75 113.19 54.01 113.1C55.27 113.01 56.45 112.83 57.54 112.58L62.2 96.71C62.37 96.71 62.53 96.71 62.72 96.72C63.39 96.74 64.07 96.76 64.75 96.77C65.42 96.79 66.02 96.8 66.53 96.8H82.14C82.65 96.8 83.24 96.8 83.92 96.77C84.6 96.75 85.27 96.73 85.95 96.72C86.15 96.72 86.33 96.72 86.52 96.71L88.55 103.92C89.61 107.68 90.92 110.21 92.49 111.51C94.06 112.8 96.23 113.45 99.01 113.45C100.65 113.45 102.43 113.27 104.35 112.9C106.27 112.53 107.83 112.01 109.03 111.31L85.48 37.75L85.47 37.77ZM82.38 83.04C81.7 83.02 81.04 83 80.38 82.99C79.72 82.98 79.14 82.96 78.63 82.96H70.63C70.12 82.96 69.53 82.96 68.88 82.99C68.23 83.02 67.57 83.03 66.91 83.04C66.66 83.04 66.44 83.05 66.21 83.06L68.71 74.53C69.29 72.56 69.92 70.34 70.6 67.88C71.27 65.42 71.92 62.94 72.54 60.46C73.16 57.98 73.65 55.71 74.02 53.67H74.68C75.59 57.28 76.61 61.17 77.75 65.34C78.88 69.5 79.87 73.12 80.71 76.18L82.65 83.06C82.56 83.06 82.48 83.06 82.38 83.06V83.04Z" fill="white"/>
</svg>
