<svg width="150" height="150" viewBox="0 0 150 150" fill="none" xmlns="http://www.w3.org/2000/svg">
<circle cx="75" cy="75" r="75" fill="#1B1C20"/>
<path d="M109.74 75.01C109.74 79.28 109.44 83.4 108.84 87.36C108.24 91.32 107.06 95.02 105.31 98.45C103.56 101.88 100.93 104.95 97.42 107.65C95.74 108.96 93.72 110.02 91.37 110.83C89.01 111.63 86.6 112.22 84.11 112.58C81.63 112.94 79.3599 113.13 77.3199 113.13C74.1799 113.13 71.1 113.1 68.09 113.05C65.08 113 62.07 112.94 59.05 112.89C56.04 112.84 52.94 112.77 49.77 112.7L49 111.93V38.21L49.77 37.44C52.91 37.33 55.99 37.25 59 37.19C62.01 37.14 65.03 37.09 68.06 37.05C71.09 37.01 74.1799 37 77.3199 37C79.3599 37 81.63 37.19 84.11 37.58C86.59 37.96 89.02 38.56 91.39 39.36C93.76 40.16 95.77 41.22 97.41 42.54C100.88 45.24 103.49 48.3 105.24 51.71C106.99 55.12 108.18 58.8 108.8 62.75C109.42 66.69 109.73 70.78 109.73 75.02L109.74 75.01ZM91.72 75.01C91.72 72.24 91.5499 69.42 91.2 66.55C90.85 63.68 90.2 61.06 89.23 58.66C88.26 56.27 86.82 54.33 84.9 52.85C82.98 51.37 80.45 50.63 77.31 50.63H71.94C70.22 50.63 68.4 50.59 66.46 50.52V99.54C68.39 99.5 70.22 99.49 71.94 99.49H77.31C80.45 99.49 82.98 98.75 84.9 97.27C86.82 95.79 88.26 93.84 89.23 91.41C90.2 88.98 90.85 86.33 91.2 83.47C91.5499 80.6 91.72 77.78 91.72 75.01Z" fill="white"/>
</svg>
