<svg width="150" height="150" viewBox="0 0 150 150" fill="none" xmlns="http://www.w3.org/2000/svg">
<circle cx="75" cy="75" r="75" fill="#F95F05"/>
<path d="M102.82 105.87C102.24 105.1 101.68 104.12 101.15 102.91C100.62 101.7 99.99 100.03 99.26 97.87L94.77 84.34C94 81.89 92.98 79.68 91.7 77.71C90.42 75.74 88.6 74.17 86.22 73C85.21 72.5 84.02 72.11 82.69 71.83C85.14 69.75 87.22 67.11 88.91 63.91L102.16 38.77L101.23 37.56C99.51 37.41 97.69 37.3 95.75 37.2C93.81 37.11 92.14 37.06 90.71 37.06C88.15 37.06 86.27 37.55 85.07 38.54C83.87 39.53 82.73 41.04 81.67 43.09L71.32 62.75C70.55 64.25 69.88 65.24 69.29 65.73C68.71 66.22 67.72 66.47 66.33 66.47C65.43 66.49 64.5 66.5 63.59 66.52V37.66C62.13 37.41 60.59 37.23 58.96 37.14C57.34 37.05 55.94 37 54.77 37C53.71 37 52.34 37.05 50.66 37.14C48.98 37.23 47.43 37.41 46 37.66V112.49C47.42 112.74 48.98 112.92 50.66 113.01C52.34 113.1 53.71 113.15 54.77 113.15C55.94 113.15 57.33 113.1 58.96 113.01C60.58 112.92 62.13 112.74 63.59 112.49V81.24C65.41 81.12 67.01 81.05 68.35 81.05C70.94 81.05 73.02 81.78 74.59 83.24C76.16 84.7 77.49 87.17 78.59 90.63L82.7 103.45C83.76 106.81 85 109.31 86.42 110.95C87.84 112.59 90.14 113.41 93.32 113.41C95.66 113.41 97.89 112.95 100.03 112.04C102.17 111.13 103.8 109.83 104.93 108.15C104.09 107.38 103.38 106.62 102.79 105.85L102.82 105.87Z" fill="white"/>
</svg>
