<svg width="210" height="205" viewBox="0 0 210 205" fill="none" xmlns="http://www.w3.org/2000/svg">
<g clip-path="url(#clip0_6_3)">
<path fill-rule="evenodd" clip-rule="evenodd" d="M201.826 98.2915C206.768 98.6994 210.409 103.037 210.001 107.969C209.592 112.9 205.245 116.534 200.34 116.089C195.436 115.681 191.757 111.38 192.166 106.448C192.575 101.554 196.922 97.8837 201.826 98.2915ZM196.29 66.1455C201.901 66.6275 206.062 71.5588 205.579 77.1204C205.096 82.7191 200.154 86.8346 194.581 86.3897C188.971 85.9077 184.847 81.0135 185.292 75.4149C185.775 69.8162 190.717 65.6635 196.29 66.1455ZM150.07 0.0739239C159.321 0.852546 166.158 8.97246 165.377 18.1676C164.597 27.3998 156.497 34.185 147.246 33.4064C138.031 32.6277 131.158 24.5449 131.938 15.3497C132.718 6.15459 140.855 -0.704698 150.07 0.0739239ZM159.804 72.8565C170.765 73.7835 178.939 83.4235 178.01 94.3613C177.081 105.336 167.458 113.382 156.46 112.455C145.499 111.528 137.4 101.962 138.329 90.9873C139.257 80.0866 148.881 71.8925 159.804 72.8194V72.8565ZM178.642 113.901C186.481 114.568 192.24 121.391 191.609 129.177C190.94 136.963 184.103 142.747 176.264 142.08C168.461 141.412 162.702 134.59 163.371 126.804C164.003 119.055 170.839 113.234 178.642 113.901ZM145.611 180.9C151.036 181.344 155.048 186.127 154.602 191.504C154.157 196.917 149.364 200.921 143.976 200.476C138.551 200.031 134.539 195.286 134.985 189.872C135.43 184.459 140.186 180.455 145.611 180.9ZM120.048 71.5217C124.99 71.9296 128.631 76.2676 128.222 81.1989C127.814 86.1302 123.467 89.7637 118.525 89.3559C113.62 88.948 109.942 84.6471 110.388 79.7158C110.797 74.8216 115.144 71.151 120.048 71.5588V71.5217ZM149.698 119.463C156.237 120.019 161.067 125.766 160.51 132.254C159.953 138.743 154.231 143.6 147.692 143.081C141.189 142.525 136.359 136.778 136.88 130.289C137.437 123.764 143.159 118.944 149.661 119.463H149.698ZM146.763 149.94C153.079 150.496 157.761 155.984 157.24 162.287C156.72 168.553 151.184 173.262 144.868 172.743C138.589 172.186 133.907 166.662 134.427 160.359C134.947 154.056 140.484 149.421 146.8 149.94H146.763ZM98.7585 89.6154C104.592 90.0974 108.939 95.2512 108.456 101.072C107.973 106.893 102.808 111.194 96.9751 110.712C91.1417 110.23 86.7946 105.114 87.2776 99.2555C87.7606 93.4344 92.888 89.0964 98.7585 89.5784V89.6154ZM183.137 151.942C189.268 152.461 193.838 157.838 193.318 163.992C192.798 170.11 187.373 174.671 181.28 174.152C175.149 173.632 170.616 168.256 171.136 162.101C171.657 155.984 177.044 151.423 183.175 151.942H183.137ZM186.296 183.68C192.166 184.162 196.55 189.279 196.03 195.174C195.547 201.033 190.383 205.408 184.512 204.926C178.642 204.444 174.257 199.253 174.778 193.395C175.261 187.499 180.425 183.198 186.333 183.68H186.296ZM173.403 35.3714C181.354 36.0388 187.225 43.0094 186.556 50.9439C185.887 58.8413 178.902 64.7366 170.988 64.0692C163.074 63.4018 157.166 56.4313 157.835 48.4968C158.504 40.5993 165.489 34.7041 173.403 35.3714ZM138.477 45.3452C145.239 45.9014 150.255 51.8708 149.698 58.6189C149.141 65.3669 143.159 70.4094 136.396 69.8533C129.634 69.2971 124.581 63.3277 125.139 56.5425C125.696 49.7945 131.678 44.752 138.44 45.3452H138.477ZM22.405 137.853C27.0494 141.894 27.5695 148.865 23.5196 153.499C19.5069 158.097 12.4846 158.616 7.84023 154.612C3.19586 150.607 2.71284 143.6 6.72558 138.965C10.7383 134.331 17.7606 133.849 22.3678 137.853H22.405ZM22.5908 164.215C26.6407 167.7 27.0865 173.818 23.5568 177.896C20.0271 181.938 13.8965 182.383 9.8466 178.897C5.79671 175.375 5.35085 169.257 8.88057 165.216C12.4103 161.174 18.5409 160.73 22.5908 164.252V164.215ZM13.5621 185.905C16.9804 188.871 17.3519 194.062 14.3795 197.473C11.4071 200.884 6.20541 201.255 2.78715 198.326C-0.631107 195.36 -1.00266 190.169 1.96974 186.758C4.94214 183.31 10.1438 182.976 13.5621 185.942V185.905ZM20.8445 59.9907C29.13 60.6581 35.2978 67.9623 34.5918 76.2676C33.8859 84.5359 26.6035 90.6907 18.3179 89.9862C10.0324 89.2817 3.9018 82.0146 4.60775 73.7093C5.31369 65.4411 12.5589 59.2863 20.8816 59.9907H20.8445ZM41.6513 130.994C47.7818 131.513 52.3147 136.852 51.7946 142.97C51.2744 149.05 45.8869 153.611 39.7564 153.092C33.6629 152.61 29.0929 147.196 29.6131 141.116C30.1332 134.998 35.5207 130.512 41.6141 130.994H41.6513ZM46.0727 82.3112C52.7235 82.8674 57.6651 88.7256 57.1077 95.3624C56.5504 101.999 50.6799 106.93 44.0663 106.337C37.4156 105.781 32.474 99.96 33.0313 93.3232C33.5886 86.6863 39.4591 81.7551 46.1099 82.3112H46.0727ZM50.5313 158.802C55.8445 159.246 59.8201 163.955 59.3742 169.294C58.9283 174.634 54.2097 178.601 48.8965 178.156C43.5462 177.711 39.6077 173.002 40.0536 167.663C40.4995 162.324 45.2181 158.357 50.5313 158.802ZM54.0982 184.681C58.5939 185.052 61.975 189.019 61.6035 193.543C61.2319 198.066 57.2192 201.403 52.7235 201.033C48.2277 200.662 44.8466 196.657 45.2181 192.134C45.5897 187.611 49.5653 184.274 54.0982 184.644V184.681ZM21.1417 97.3646C30.6534 98.1803 37.7128 106.56 36.9326 116.014C36.1523 125.543 27.7553 132.551 18.2436 131.772C8.73195 130.957 1.6725 122.651 2.45276 113.122C3.23301 103.631 11.63 96.5489 21.1417 97.3646ZM71.8211 100.22C76.837 100.627 80.5525 105.002 80.1067 110.008C79.698 114.976 75.2765 118.721 70.2606 118.276C65.2818 117.868 61.5292 113.456 61.9751 108.451C62.3838 103.445 66.8052 99.7746 71.784 100.182L71.8211 100.22ZM29.13 23.2472C37.8986 23.9887 44.4007 31.7379 43.6948 40.4881C42.9517 49.2754 35.2235 55.7268 26.4549 54.9853C17.6491 54.2438 11.147 46.5688 11.8901 37.7815C12.6332 29.0312 20.3615 22.5056 29.13 23.2472Z" fill="#9D662A"/>
<g clip-path="url(#clip1_6_3)">
<path fill-rule="evenodd" clip-rule="evenodd" d="M196.826 98.2915C201.768 98.6994 205.409 103.037 205.001 107.969C204.592 112.9 200.245 116.534 195.34 116.089C190.436 115.681 186.757 111.38 187.166 106.448C187.575 101.554 191.922 97.8837 196.826 98.2915ZM191.29 66.1455C196.901 66.6275 201.062 71.5588 200.579 77.1204C200.096 82.7191 195.154 86.8346 189.581 86.3897C183.971 85.9077 179.847 81.0135 180.292 75.4149C180.775 69.8162 185.717 65.6635 191.29 66.1455ZM145.07 0.0739239C154.321 0.852546 161.158 8.97246 160.377 18.1676C159.597 27.3998 151.497 34.185 142.246 33.4064C133.031 32.6277 126.158 24.5449 126.938 15.3497C127.718 6.15459 135.855 -0.704698 145.07 0.0739239ZM154.804 72.8565C165.765 73.7835 173.939 83.4235 173.01 94.3613C172.081 105.336 162.458 113.382 151.46 112.455C140.499 111.528 132.4 101.962 133.329 90.9873C134.257 80.0866 143.881 71.8925 154.804 72.8194V72.8565ZM173.642 113.901C181.481 114.568 187.24 121.391 186.609 129.177C185.94 136.963 179.103 142.747 171.264 142.08C163.461 141.412 157.702 134.59 158.371 126.804C159.003 119.055 165.839 113.234 173.642 113.901ZM140.611 180.9C146.036 181.344 150.048 186.127 149.602 191.504C149.157 196.917 144.364 200.921 138.976 200.476C133.551 200.031 129.539 195.286 129.985 189.872C130.43 184.459 135.186 180.455 140.611 180.9ZM115.048 71.5217C119.99 71.9296 123.631 76.2676 123.222 81.1989C122.814 86.1302 118.467 89.7637 113.525 89.3559C108.62 88.948 104.942 84.6471 105.388 79.7158C105.797 74.8216 110.144 71.151 115.048 71.5588V71.5217ZM144.698 119.463C151.237 120.019 156.067 125.766 155.51 132.254C154.953 138.743 149.231 143.6 142.692 143.081C136.189 142.525 131.359 136.778 131.88 130.289C132.437 123.764 138.159 118.944 144.661 119.463H144.698ZM141.763 149.94C148.079 150.496 152.761 155.984 152.24 162.287C151.72 168.553 146.184 173.262 139.868 172.743C133.589 172.186 128.907 166.662 129.427 160.359C129.947 154.056 135.484 149.421 141.8 149.94H141.763ZM93.7585 89.6154C99.5918 90.0974 103.939 95.2512 103.456 101.072C102.973 106.893 97.8084 111.194 91.9751 110.712C86.1417 110.23 81.7946 105.114 82.2776 99.2555C82.7606 93.4344 87.888 89.0964 93.7585 89.5784V89.6154ZM178.137 151.942C184.268 152.461 188.838 157.838 188.318 163.992C187.798 170.11 182.373 174.671 176.28 174.152C170.149 173.632 165.616 168.256 166.136 162.101C166.657 155.984 172.044 151.423 178.175 151.942H178.137ZM181.296 183.68C187.166 184.162 191.55 189.279 191.03 195.174C190.547 201.033 185.383 205.408 179.512 204.926C173.642 204.444 169.257 199.253 169.778 193.395C170.261 187.499 175.425 183.198 181.333 183.68H181.296ZM168.403 35.3714C176.354 36.0388 182.225 43.0094 181.556 50.9439C180.887 58.8413 173.902 64.7366 165.988 64.0692C158.074 63.4018 152.166 56.4313 152.835 48.4968C153.504 40.5993 160.489 34.7041 168.403 35.3714ZM133.477 45.3452C140.239 45.9014 145.255 51.8708 144.698 58.6189C144.141 65.3669 138.159 70.4094 131.396 69.8533C124.634 69.2971 119.581 63.3277 120.139 56.5425C120.696 49.7945 126.678 44.752 133.44 45.3452H133.477ZM17.405 137.853C22.0494 141.894 22.5695 148.865 18.5196 153.499C14.5069 158.097 7.4846 158.616 2.84023 154.612C-1.80414 150.607 -2.28716 143.6 1.72558 138.965C5.73832 134.331 12.7606 133.849 17.3678 137.853H17.405ZM17.5908 164.215C21.6407 167.7 22.0865 173.818 18.5568 177.896C15.0271 181.938 8.89649 182.383 4.8466 178.897C0.796706 175.375 0.350847 169.257 3.88057 165.216C7.41029 161.174 13.5409 160.73 17.5908 164.252V164.215ZM8.5621 185.905C11.9804 188.871 12.3519 194.062 9.37951 197.473C6.40711 200.884 1.20541 201.255 -2.21285 198.326C-5.63111 195.36 -6.00266 190.169 -3.03026 186.758C-0.0578589 183.31 5.14384 182.976 8.5621 185.942V185.905ZM15.8445 59.9907C24.13 60.6581 30.2978 67.9623 29.5918 76.2676C28.8859 84.5359 21.6035 90.6907 13.3179 89.9862C5.03237 89.2817 -1.0982 82.0146 -0.392253 73.7093C0.313691 65.4411 7.55891 59.2863 15.8816 59.9907H15.8445ZM36.6513 130.994C42.7818 131.513 47.3147 136.852 46.7946 142.97C46.2744 149.05 40.8869 153.611 34.7564 153.092C28.6629 152.61 24.0929 147.196 24.6131 141.116C25.1332 134.998 30.5207 130.512 36.6141 130.994H36.6513ZM41.0727 82.3112C47.7235 82.8674 52.6651 88.7256 52.1077 95.3624C51.5504 101.999 45.6799 106.93 39.0663 106.337C32.4156 105.781 27.474 99.96 28.0313 93.3232C28.5886 86.6863 34.4591 81.7551 41.1099 82.3112H41.0727ZM45.5313 158.802C50.8445 159.246 54.8201 163.955 54.3742 169.294C53.9283 174.634 49.2097 178.601 43.8965 178.156C38.5462 177.711 34.6077 173.002 35.0536 167.663C35.4995 162.324 40.2181 158.357 45.5313 158.802ZM49.0982 184.681C53.5939 185.052 56.975 189.019 56.6035 193.543C56.2319 198.066 52.2192 201.403 47.7235 201.033C43.2277 200.662 39.8466 196.657 40.2181 192.134C40.5897 187.611 44.5653 184.274 49.0982 184.644V184.681ZM16.1417 97.3646C25.6534 98.1803 32.7128 106.56 31.9326 116.014C31.1523 125.543 22.7553 132.551 13.2436 131.772C3.73195 130.957 -3.3275 122.651 -2.54724 113.122C-1.76699 103.631 6.63004 96.5489 16.1417 97.3646ZM66.8211 100.22C71.837 100.627 75.5525 105.002 75.1067 110.008C74.698 114.976 70.2765 118.721 65.2606 118.276C60.2818 117.868 56.5292 113.456 56.9751 108.451C57.3838 103.445 61.8052 99.7746 66.784 100.182L66.8211 100.22ZM24.13 23.2472C32.8986 23.9887 39.4007 31.7379 38.6948 40.4881C37.9517 49.2754 30.2235 55.7268 21.4549 54.9853C12.6491 54.2438 6.14702 46.5688 6.89012 37.7815C7.63322 29.0312 15.3615 22.5056 24.13 23.2472Z" fill="#D67C1C"/>
</g>
</g>
<defs>
<clipPath id="clip0_6_3">
<rect width="210" height="205" fill="white"/>
</clipPath>
<clipPath id="clip1_6_3">
<rect width="210" height="205" fill="white" transform="translate(-7)"/>
</clipPath>
</defs>
</svg>
