<svg width="150" height="150" viewBox="0 0 150 150" fill="none" xmlns="http://www.w3.org/2000/svg">
<circle cx="75" cy="75" r="75" fill="#61A60B"/>
<path d="M56.21 39.39C57.94 40.34 59.61 40.81 61.22 40.81L62.15 39.5C62.81 38.51 63.48 37.83 64.18 37.45C64.87 37.07 65.53 36.87 66.15 36.87C66.73 36.87 67.32 36.97 67.9 37.17C68.48 37.37 69.03 37.6 69.54 37.85L74.63 40.31C75.62 40.78 76.76 41.22 78.05 41.62C79.35 42.02 80.65 42.22 81.97 42.22C85.07 42.22 87.78 41.32 90.1 39.51C92.42 37.7 94.23 35.37 95.55 32.53L96.48 30.5C95.86 29 94.69 27.78 92.98 26.83C91.26 25.88 89.58 25.39 87.94 25.35L87.01 26.72C86.35 27.71 85.68 28.39 84.98 28.77C84.29 29.15 83.63 29.35 83.01 29.35C82.43 29.35 81.83 29.25 81.23 29.05C80.63 28.85 80.07 28.62 79.56 28.37L74.52 25.91C73.46 25.4 72.3 24.95 71.04 24.57C69.78 24.19 68.49 24 67.18 24C64.04 24 61.32 24.9 59.02 26.71C56.72 28.52 54.91 30.83 53.6 33.64L52.67 35.72C53.29 37.22 54.47 38.44 56.2 39.39H56.21Z" fill="white"/>
<path d="M105.2 70.06C103.89 65.28 101.89 61.17 99.2 57.74C96.52 54.31 93.13 51.65 89.04 49.77C84.95 47.89 80.13 46.95 74.58 46.95C67.2 46.95 61.11 48.57 56.29 51.82C51.47 55.07 47.88 59.6199 45.53 65.4599C43.18 71.2999 42 78.13 42 85.94C42 91.78 42.66 97.1 43.97 101.88C45.28 106.66 47.27 110.78 49.94 114.23C52.6 117.68 55.98 120.35 60.07 122.23C64.16 124.11 69 125.05 74.58 125.05C81.96 125.05 88.04 123.42 92.85 120.17C97.65 116.92 101.24 112.37 103.61 106.5C105.98 100.64 107.17 93.79 107.17 85.93C107.17 80.1199 106.51 74.83 105.2 70.05V70.06ZM88.36 94.76C88.05 97.75 87.41 100.53 86.44 103.09C85.47 105.65 84.04 107.7 82.14 109.25C80.24 110.8 77.72 111.58 74.58 111.58C71.44 111.58 68.87 110.8 66.97 109.25C65.07 107.7 63.64 105.64 62.67 103.09C61.7 100.53 61.06 97.76 60.75 94.76C60.44 91.77 60.28 88.83 60.28 85.94C60.28 83.05 60.43 80.12 60.75 77.12C61.06 74.13 61.7 71.3699 62.67 68.8499C63.64 66.3299 65.07 64.3 66.97 62.74C68.87 61.19 71.41 60.41 74.58 60.41C77.75 60.41 80.24 61.19 82.14 62.74C84.04 64.29 85.47 66.3299 86.44 68.8499C87.41 71.3699 88.05 74.13 88.36 77.12C88.67 80.11 88.83 83.05 88.83 85.94C88.83 88.83 88.67 91.76 88.36 94.76Z" fill="white"/>
</svg>
