<svg width="150" height="150" viewBox="0 0 150 150" fill="none" xmlns="http://www.w3.org/2000/svg">
<circle cx="75" cy="75" r="75" fill="#1B8FBE"/>
<path d="M47 106.95C47.22 104.5 47.98 102.08 49.27 99.67C50.57 97.26 52.07 95.33 53.79 93.86C56.86 95.72 60.34 97.38 64.25 98.84C68.16 100.3 72.06 101.03 75.97 101.03C79.15 101.03 81.43 100.26 82.82 98.73C84.21 97.2 84.9 95.55 84.9 93.8C84.9 92.59 84.52 91.24 83.75 89.75C82.98 88.26 81.07 86.87 78 85.59L64.8 80.11C60.27 78.21 56.53 75.67 53.57 72.5C50.61 69.32 49.13 65.12 49.13 59.9C49.13 55.34 50.32 51.34 52.69 47.9C55.06 44.47 58.27 41.79 62.3 39.88C66.33 37.96 70.84 37 75.8 37C80.76 37 85.8 37.68 90.37 39.05C94.94 40.42 98.64 41.83 101.49 43.29C101.34 45.81 100.75 48.23 99.71 50.55C98.67 52.87 97.29 54.81 95.58 56.38C92.8 55.07 89.56 53.85 85.83 52.74C82.11 51.63 78.76 51.07 75.81 51.07C72.67 51.07 70.43 51.78 69.1 53.21C67.77 54.63 67.1 56.08 67.1 57.54C67.1 59 67.57 60.17 68.5 61.26C69.43 62.36 71.1 63.41 73.51 64.44L86.98 69.97C90.52 71.43 93.52 73.25 95.96 75.42C98.41 77.59 100.28 80.05 101.57 82.79C102.86 85.53 103.51 88.47 103.51 91.61C103.51 96.03 102.44 100.01 100.31 103.55C98.17 107.09 94.97 109.9 90.7 111.98C86.43 114.06 81.1 115.1 74.71 115.1C70.29 115.1 65.58 114.4 60.58 112.99C55.58 111.58 51.05 109.57 47 106.94V106.95Z" fill="white"/>
</svg>
